<svg xmlns="http://www.w3.org/2000/svg" viewBox="0 0 758 100" width="100%" role="img" style="width: auto;height: 100%; max-width: 100%;"><title>Formidable Charts</title><path d="M49.325,18.748q13.873,0,19.723-.29-2.563,7.2-4.061,12.665Q63.923,34.8,63.1,39.244H60.83a65.052,65.052,0,0,0,1.112-9.861,10.517,10.517,0,0,0-1.039-5.1,6.051,6.051,0,0,0-3.5-2.707,22,22,0,0,0-6.864-.846H45.264a18.076,18.076,0,0,0-5.293.58,5.225,5.225,0,0,0-2.828,2.248,20.8,20.8,0,0,0-2.079,5.39L28.539,53.311H35.79q5.027,0,7.493-3.021A22.53,22.53,0,0,0,46.932,44.2q1.184-3.07,1.523-3.94h2.272q-1.983,6.043-2.9,9.547t-1.16,4.471q-2.079,8.751-3.19,14.067H41.2q0.145-.87.483-3.069a25.543,25.543,0,0,0,.338-3.795,6.48,6.48,0,0,0-1.5-4.568q-1.5-1.619-5.269-1.619H28.007L21.916,78.061a19.265,19.265,0,0,0-.773,4.4,3.432,3.432,0,0,0,.822,2.489,4.806,4.806,0,0,0,2.61,1.185,34.362,34.362,0,0,0,5.076.435l-0.532,1.982q-5.125-.29-14.55-0.29-8.364,0-12.568.29l0.532-1.982a18.98,18.98,0,0,0,5.317-.773,5.441,5.441,0,0,0,2.8-2.32,21.279,21.279,0,0,0,2.079-5.414L25.88,28.948a19.672,19.672,0,0,0,.87-4.834,3.265,3.265,0,0,0-.652-2.2,3.71,3.71,0,0,0-2.03-1.063,22.8,22.8,0,0,0-3.94-.411l0.483-1.982Q30.327,18.748,49.325,18.748Z"/><path d="M60.855,57.638a40.737,40.737,0,0,1,9.982-15.155A21.38,21.38,0,0,1,86.017,36.3q6.332,0,9.934,3.916t3.6,11.6A46.771,46.771,0,0,1,96.1,68.563a41.121,41.121,0,0,1-9.958,15.179,21.257,21.257,0,0,1-15.155,6.212q-6.333,0-9.958-3.94T57.4,74.387A46.749,46.749,0,0,1,60.855,57.638ZM75.841,44.707a52.388,52.388,0,0,0-7.227,16.1,68.777,68.777,0,0,0-2.707,18.563q0,8.6,5.656,8.6,5.076,0,9.571-6.43a52.8,52.8,0,0,0,7.2-16.072,68.72,68.72,0,0,0,2.707-18.587q0-4.447-1.378-6.526a4.722,4.722,0,0,0-4.229-2.079Q80.361,38.277,75.841,44.707Z"/><path d="M126.986,47.22a27.542,27.542,0,0,1,6.526-8.338,11.49,11.49,0,0,1,7.227-2.586,5.787,5.787,0,0,1,4.278,1.571,5.469,5.469,0,0,1,1.571,4.037,6.932,6.932,0,0,1-.967,3.577,7.356,7.356,0,0,1-2.562,2.61,6.5,6.5,0,0,1-3.432.967,4.159,4.159,0,0,1-2.828-.942,3.3,3.3,0,0,1-1.088-2.634q0-4.447,4.447-6.333a1.508,1.508,0,0,0-1.112-.387q-3.53,0-7.541,5.221a70.03,70.03,0,0,0-8.073,14.6,195.453,195.453,0,0,0-7.734,21.7l-2.079,8.267h-8.6L116.859,46.06a14.709,14.709,0,0,0,.725-3.867q0-2.271-2.079-2.272a5.121,5.121,0,0,0-4.036,2.345,28.808,28.808,0,0,0-3.7,7.758L106.466,53.7h-1.885l2.514-7.2q3.48-10.2,11.94-10.2,5.7,0,5.7,5.752a17.52,17.52,0,0,1-.338,3.335q-0.339,1.74-1.063,4.737l-3.19,12.568A115.2,115.2,0,0,1,126.986,47.22Z"/><path d="M214.459,79.753q-3.48,10.2-11.988,10.2-4.4,0-6.139-2.708a6.257,6.257,0,0,1-.822-3.384,27.625,27.625,0,0,1,1.644-7.782l9.378-28.327a18.449,18.449,0,0,0,1.015-5.221q0-3.093-2.175-3.094-3.82,0-8.339,5.994a83.732,83.732,0,0,0-9.16,16.629,237.692,237.692,0,0,0-8.943,24.508l0.1-.483-0.677,2.466h-8.943l12.375-40.8a17.44,17.44,0,0,0,1.015-5.076q0-3.238-2.755-3.239-3.625,0-8.1,5.656A73.578,73.578,0,0,0,163.1,60.538a157.951,157.951,0,0,0-7.71,21.632l-1.6,6.381h-8.6L157.032,46.06a14.526,14.526,0,0,0,.725-3.625q0-2.513-2.079-2.514a5.121,5.121,0,0,0-4.036,2.345,28.808,28.808,0,0,0-3.7,7.758L146.639,53.7h-1.885l2.514-7.2q3.48-10.2,11.94-10.2,5.752,0,5.752,5.946a29.621,29.621,0,0,1-1.45,7.879l-3.142,12.472a101.89,101.89,0,0,1,7.589-15.468,28.012,28.012,0,0,1,7.323-8.291,13.865,13.865,0,0,1,8-2.538q6.477,0,6.478,6.961a31.875,31.875,0,0,1-1.305,7.976l-3.529,13.1a118.293,118.293,0,0,1,7.807-16.411,29.956,29.956,0,0,1,7.444-8.846,13.94,13.94,0,0,1,8.435-2.78q3.673,0,5.317,2.006a8.251,8.251,0,0,1,1.644,5.39,24.168,24.168,0,0,1-1.4,7.541L204.55,80.14a13.3,13.3,0,0,0-.725,3.771,2.072,2.072,0,0,0,2.32,2.368,5.108,5.108,0,0,0,3.867-2.247q1.836-2.249,3.771-7.855l1.305-3.674h1.837Z"/><path d="M236.311,42.435q0-2.513-2.127-2.514a5.072,5.072,0,0,0-4.061,2.393,32.457,32.457,0,0,0-3.771,7.71l-1.4,3.674h-1.837l2.562-7.2q2.03-5.656,5.317-7.928a12.039,12.039,0,0,1,6.961-2.272q6.573,0,6.574,6.188a24.7,24.7,0,0,1-1.644,7.637L232.3,80.14a10.938,10.938,0,0,0-.773,3.625q0,2.515,2.369,2.514a4.978,4.978,0,0,0,3.819-2.247,31.37,31.37,0,0,0,3.916-7.855l1.354-3.674h1.885l-2.562,7.251q-1.934,5.366-5.172,7.782a11.486,11.486,0,0,1-7.009,2.418q-6.913,0-6.913-6.043a24.116,24.116,0,0,1,1.74-7.831L235.586,46.06A11.929,11.929,0,0,0,236.311,42.435Zm3.239-25.209a8.333,8.333,0,0,1,2.78-2.828,6.656,6.656,0,0,1,3.553-1.063,4.78,4.78,0,0,1,3.625,1.475,5.158,5.158,0,0,1,1.4,3.7,6.932,6.932,0,0,1-1.039,3.65,8.2,8.2,0,0,1-2.78,2.779A6.851,6.851,0,0,1,243.465,26a4.759,4.759,0,0,1-3.577-1.45,5.007,5.007,0,0,1-1.4-3.625A7.055,7.055,0,0,1,239.55,17.226Z"/><path d="M296.448,72.5l-2.32,7.251q-1.693,5.511-4.81,7.855a10.868,10.868,0,0,1-6.646,2.345,6.286,6.286,0,0,1-4.641-1.6,6.216,6.216,0,0,1-1.6-4.593,34.491,34.491,0,0,1,1.257-7.686L279,71.1q-4.69,9.959-9.475,14.405t-10.2,4.448a9.3,9.3,0,0,1-7.565-3.288q-2.732-3.286-2.731-9.812,0-8.169,4.3-17.765a47.629,47.629,0,0,1,11.65-16.194q7.347-6.6,16-6.6a5.972,5.972,0,0,1,3.625,1.257,6.842,6.842,0,0,1,2.417,3.48l4.931-18.514a10.059,10.059,0,0,0,.435-2.659,3.183,3.183,0,0,0-1.547-2.924q-1.548-.943-5.221-0.943l0.628-2.079a41.456,41.456,0,0,0,9.426-1.063,37.539,37.539,0,0,0,8.073-3L284.363,80.14a12.382,12.382,0,0,0-.58,3.384q0,2.755,2.369,2.755,1.981,0,3.649-2.3a31.567,31.567,0,0,0,3.553-7.807l1.208-3.674h1.885ZM284.29,39.8a4.789,4.789,0,0,0-3.214-1.232q-5.995,0-11.36,6.405a49.823,49.823,0,0,0-8.629,15.759,53.13,53.13,0,0,0-3.263,17.426q0,8.606,4.351,8.6,2.851,0,6.7-4.036A52.482,52.482,0,0,0,276.459,71.9a80.291,80.291,0,0,0,6.212-14.574l3.674-13.729A7.1,7.1,0,0,0,284.29,39.8Z"/><path d="M346.433,72.405l-2.465,7.251q-2.03,5.511-5.076,7.9a10.13,10.13,0,0,1-6.333,2.394,7.309,7.309,0,0,1-3.263-.7,5.322,5.322,0,0,1-2.2-1.91,6.946,6.946,0,0,1-.822-3.48,14.3,14.3,0,0,1,.338-3.021q0.338-1.57.725-3t0.483-1.861l1.789-7.2q-4.738,11.12-9.644,16.146t-10.272,5.028a8.068,8.068,0,0,1-6.937-3.264q-2.394-3.262-2.393-8.726,0-8.023,4.278-17.934a54.543,54.543,0,0,1,11.07-16.822q6.79-6.912,13.9-6.913a5.538,5.538,0,0,1,4.326,1.934,9.143,9.143,0,0,1,2.006,5.462l1.547-6.042a31.987,31.987,0,0,0,9.136-1.354L334.251,80.043a16.247,16.247,0,0,0-.725,3.674q0,2.465,2.224,2.465,4.351,0,7.589-10.1l1.208-3.674h1.885Zm-11.7-25.62a11.951,11.951,0,0,0-1.426-6.284,4.491,4.491,0,0,0-4.037-2.32q-4.206,0-8.967,6.55a59.237,59.237,0,0,0-7.976,16.218,57.715,57.715,0,0,0-3.215,18.176,14.3,14.3,0,0,0,.87,5.874,2.753,2.753,0,0,0,2.562,1.764q2.755,0,6.6-4.229a54.248,54.248,0,0,0,7.541-11.287A85.6,85.6,0,0,0,332.8,56.163l1.837-7.2Q334.734,47.415,334.735,46.785Z"/><path d="M375.511,41.129q4.57-4.833,9.644-4.834a9.052,9.052,0,0,1,7.541,3.529q2.754,3.53,2.756,10.393A49.215,49.215,0,0,1,391.9,67.6a43.554,43.554,0,0,1-10.176,15.855,21.176,21.176,0,0,1-15.275,6.5,8.252,8.252,0,0,1-5.2-1.741,8.987,8.987,0,0,1-3.117-4.882l-8.412,6.816-1.5-.726a21.518,21.518,0,0,0,1.885-5.7l17.353-61.2a12.187,12.187,0,0,0,.387-2.659,3.2,3.2,0,0,0-1.5-2.949q-1.5-.918-5.123-0.918l0.482-2.079a41.451,41.451,0,0,0,9.426-1.063,35.526,35.526,0,0,0,7.976-3L366.3,56.6Q370.942,45.964,375.511,41.129ZM362.267,86.4a6.63,6.63,0,0,0,4.084,1.281q5.268,0,10.031-6.574a54.328,54.328,0,0,0,7.662-16,58.594,58.594,0,0,0,2.9-17.063,13.346,13.346,0,0,0-1.232-6.429,3.78,3.78,0,0,0-3.408-2.175q-2.66,0-6.115,4.036a56.98,56.98,0,0,0-7.01,10.974,119.28,119.28,0,0,0-6.453,15.3L359.294,82.17A10.062,10.062,0,0,0,362.267,86.4Z"/><path d="M406.667,83.62q0,2.659,2.32,2.658,1.982,0,3.723-2.3a30.39,30.39,0,0,0,3.674-7.807l1.3-3.674h1.886l-2.466,7.251q-3.577,10.2-11.891,10.2-6.817,0-6.816-6.43a27.717,27.717,0,0,1,1.354-7.444L415.9,22.519a11.5,11.5,0,0,0,.483-2.755,3.074,3.074,0,0,0-1.547-2.876,10.963,10.963,0,0,0-5.172-.894l0.676-2.079a41.789,41.789,0,0,0,9.451-1.063,39.512,39.512,0,0,0,8.193-3L407.3,80.14A13.3,13.3,0,0,0,406.667,83.62Z"/><path d="M451.674,83.161a26.727,26.727,0,0,1-6.937,4.906,17.656,17.656,0,0,1-7.855,1.886q-6.139,0-9.6-3.6t-3.456-10.369q0-7.493,4.4-16.943a48.56,48.56,0,0,1,11.916-16.1q7.516-6.646,16.314-6.647a8.08,8.08,0,0,1,5.27,1.692,5.879,5.879,0,0,1,2.078,4.834q0,8.024-8.942,13.97a88.271,88.271,0,0,1-20.642,9.91,43.461,43.461,0,0,0-1.111,9.571q0,9.523,6.816,9.522,8.458,0,15.275-9.909l1.595,0.773A30.757,30.757,0,0,1,451.674,83.161Zm-4.5-41.282a40.252,40.252,0,0,0-7.323,9.861,55.766,55.766,0,0,0-5.2,13.075q9.763-3.431,13.486-6.381A19.894,19.894,0,0,0,453.85,51.5a19.649,19.649,0,0,0,2.029-8.87,10.546,10.546,0,0,0-.387-3.553,1.274,1.274,0,0,0-1.208-.895Q451.094,38.181,447.178,41.879Z"/><path d="M527.28,41.226H525.1a46.364,46.364,0,0,0,.58-6.768,18.191,18.191,0,0,0-1.547-7.879,13.349,13.349,0,0,0-5.342-5.7,15.018,15.018,0,0,0-7.662-2.03q-8.219,0-15.88,7.734a58.523,58.523,0,0,0-12.423,19.457,60.141,60.141,0,0,0-4.762,22.7q0,9.571,3.746,14.5a12.344,12.344,0,0,0,10.418,4.931,23.905,23.905,0,0,0,9.208-2.03,25.2,25.2,0,0,0,8.436-5.7,27.827,27.827,0,0,0,4.423-5.994,95.733,95.733,0,0,0,4.472-9.668h2.175Q516.453,81.2,515.1,88.551h-2.175a26.4,26.4,0,0,0,.289-3.384q0-2.514-1.16-2.514a4.186,4.186,0,0,0-2.078.87q-3.529,2.272-5.922,3.528a26.079,26.079,0,0,1-5.535,2.079,28.782,28.782,0,0,1-7.25.822q-11.021,0-17.064-5.946T468.16,66.652a51.658,51.658,0,0,1,5.705-22.985A52.823,52.823,0,0,1,489.5,24.573a35.366,35.366,0,0,1,21.825-7.517,22.23,22.23,0,0,1,6.719.87,14.4,14.4,0,0,1,4.375,2.151,33.466,33.466,0,0,1,3.7,3.408,2.379,2.379,0,0,0,1.5.87q1.74,0,3.915-5.9h2.079A157.732,157.732,0,0,0,527.28,41.226Z"/><path d="M573.156,79.753q-3.48,10.2-11.988,10.2-6.961,0-6.961-6.092a25.266,25.266,0,0,1,1.644-7.782l9.378-28.327a15.484,15.484,0,0,0,1.063-4.931q0-3.383-3.239-3.384-3.624,0-7.83,4.568a57.948,57.948,0,0,0-8.436,12.882,143.445,143.445,0,0,0-7.9,19.239l-3.625,12.424h-8.6L546.23,22.519a10.448,10.448,0,0,0,.484-2.707,3.107,3.107,0,0,0-1.6-2.9,11.019,11.019,0,0,0-5.221-.918l0.58-2.079a39.464,39.464,0,0,0,17.838-4.061L543.958,58.918a78.152,78.152,0,0,1,7.227-13.148,25.808,25.808,0,0,1,7.251-7.227,14.966,14.966,0,0,1,7.9-2.248q7.978,0,7.977,7.493a24.922,24.922,0,0,1-1.45,7.444l-9.62,28.907a14.18,14.18,0,0,0-.725,3.771,2.072,2.072,0,0,0,2.32,2.368,5.076,5.076,0,0,0,3.818-2.247,27.821,27.821,0,0,0,3.819-7.855l1.257-3.674h1.885Z"/><path d="M625.51,72.405l-2.466,7.251q-2.03,5.511-5.075,7.9a10.131,10.131,0,0,1-6.333,2.394,7.308,7.308,0,0,1-3.263-.7,5.315,5.315,0,0,1-2.2-1.91,6.941,6.941,0,0,1-.821-3.48,14.334,14.334,0,0,1,.338-3.021q0.337-1.57.725-3t0.484-1.861l1.788-7.2q-4.739,11.12-9.644,16.146t-10.272,5.028a8.069,8.069,0,0,1-6.937-3.264q-2.394-3.262-2.393-8.726,0-8.023,4.277-17.934a54.543,54.543,0,0,1,11.07-16.822q6.791-6.912,13.9-6.913a5.539,5.539,0,0,1,4.326,1.934,9.144,9.144,0,0,1,2.007,5.462l1.547-6.042A31.983,31.983,0,0,0,625.7,36.3L613.329,80.043a16.256,16.256,0,0,0-.726,3.674q0,2.465,2.225,2.465,4.351,0,7.589-10.1l1.208-3.674h1.886Zm-11.7-25.62a11.946,11.946,0,0,0-1.426-6.284,4.492,4.492,0,0,0-4.037-2.32q-4.2,0-8.967,6.55a59.223,59.223,0,0,0-7.976,16.218,57.729,57.729,0,0,0-3.215,18.176,14.3,14.3,0,0,0,.87,5.874,2.754,2.754,0,0,0,2.563,1.764q2.754,0,6.6-4.229a54.248,54.248,0,0,0,7.541-11.287,85.635,85.635,0,0,0,6.115-15.082l1.837-7.2Q613.812,47.415,613.812,46.785Z"/><path d="M653.718,47.22a27.534,27.534,0,0,1,6.526-8.338,11.491,11.491,0,0,1,7.227-2.586,5.786,5.786,0,0,1,4.278,1.571,5.467,5.467,0,0,1,1.571,4.037,6.937,6.937,0,0,1-.967,3.577,7.362,7.362,0,0,1-2.562,2.61,6.5,6.5,0,0,1-3.432.967,4.16,4.16,0,0,1-2.828-.942,3.3,3.3,0,0,1-1.088-2.634q0-4.447,4.447-6.333a1.509,1.509,0,0,0-1.111-.387q-3.53,0-7.541,5.221a70.006,70.006,0,0,0-8.073,14.6,195.354,195.354,0,0,0-7.734,21.7l-2.079,8.267h-8.6L643.591,46.06a14.713,14.713,0,0,0,.726-3.867q0-2.271-2.079-2.272a5.122,5.122,0,0,0-4.036,2.345,28.808,28.808,0,0,0-3.7,7.758L633.2,53.7h-1.885l2.514-7.2q3.48-10.2,11.939-10.2,5.7,0,5.705,5.752a17.561,17.561,0,0,1-.339,3.335q-0.338,1.74-1.063,4.737l-3.19,12.568A115.2,115.2,0,0,1,653.718,47.22Z"/><path d="M680.186,82.363a3.58,3.58,0,0,0,1.185,2.948,4.769,4.769,0,0,0,3.118.967,6.5,6.5,0,0,0,4.616-2.127q2.15-2.125,4.181-7.782l1.4-3.867h1.885l-2.078,6.235q-2.079,6.141-5.414,8.678a13.1,13.1,0,0,1-8.17,2.538q-4.447,0-6.646-2.176a8.113,8.113,0,0,1-2.2-6.043,21.531,21.531,0,0,1,.918-5.655l10.49-36.448h-8.895l0.483-1.982h8.991l4.3-15.034a28.542,28.542,0,0,0,8.895-1.4l-4.689,16.436h13.1l-0.289,1.982H692.03L680.524,80.14A7.936,7.936,0,0,0,680.186,82.363Z"/><path d="M710.255,87.971a9.385,9.385,0,0,0,10.007-10.2,16.957,16.957,0,0,0-1.185-6.187,31.956,31.956,0,0,0-3.988-6.912q-2.369-3.239-3.5-4.979a20.739,20.739,0,0,1-2.03-4.157,14.909,14.909,0,0,1-.895-5.221,13.183,13.183,0,0,1,2.055-7.3A13.881,13.881,0,0,1,716.3,38.06a17.053,17.053,0,0,1,7.734-1.764,17.7,17.7,0,0,1,8.6,1.91q3.48,1.91,3.48,6.695a5.967,5.967,0,0,1-.483,2.248,5.046,5.046,0,0,1-1.522,2.03,3.963,3.963,0,0,1-2.587.846,3.8,3.8,0,0,1-2.827-1.16,4.1,4.1,0,0,1-1.136-3,10.624,10.624,0,0,1,2.8-6.623,9.729,9.729,0,0,0-4.979-1.16A8.21,8.21,0,0,0,719.2,40.6a9.486,9.486,0,0,0-2.417,6.864,10.489,10.489,0,0,0,.87,4.472,28.713,28.713,0,0,0,2.514,4.205q1.642,2.345,2.563,3.7a62.155,62.155,0,0,1,4.4,7.831,16.269,16.269,0,0,1,1.45,6.719,14.393,14.393,0,0,1-2.32,8.049,15.881,15.881,0,0,1-6.212,5.535,18.434,18.434,0,0,1-8.483,1.982,17.606,17.606,0,0,1-9.547-2.418,8.13,8.13,0,0,1-3.843-7.4,5.278,5.278,0,0,1,.942-3.094,3.317,3.317,0,0,1,2.925-1.354,3.562,3.562,0,0,1,3.287,1.788,8.588,8.588,0,0,1,1.063,4.447,28.618,28.618,0,0,1-.676,5.124A10.08,10.08,0,0,0,710.255,87.971Z"/></svg>
